<svg width="74" height="82" viewBox="0 0 74 82" fill="none" xmlns="http://www.w3.org/2000/svg">
<path fill-rule="evenodd" clip-rule="evenodd" d="M26.292 62.6746C26.1017 62.6756 25.9162 62.6151 25.763 62.5022L22.3795 60.0386L18.9935 62.4973C18.8401 62.6096 18.655 62.6703 18.4648 62.6706C18.2747 62.6709 18.0894 62.6109 17.9356 62.4992C17.7817 62.3874 17.6673 62.2298 17.6088 62.0489C17.5503 61.868 17.5507 61.6732 17.61 61.4925L18.9037 57.5144L15.5179 55.0556C15.3652 54.9435 15.2517 54.786 15.1937 54.6057C15.1357 54.4254 15.1359 54.2314 15.1945 54.0513C15.2532 53.8711 15.3671 53.7141 15.5201 53.6024C15.6731 53.4908 15.8575 53.4302 16.0469 53.4294H20.2289L21.5226 49.4512C21.5834 49.2742 21.6979 49.1205 21.8502 49.0117C22.0025 48.9029 22.185 48.8444 22.3722 48.8444C22.5593 48.8444 22.7419 48.9029 22.8942 49.0117C23.0465 49.1205 23.161 49.2742 23.2217 49.4512L24.5154 53.4294H28.6974C28.8868 53.4302 29.0712 53.4908 29.2242 53.6024C29.3772 53.7141 29.4912 53.8711 29.5498 54.0513C29.6084 54.2314 29.6086 54.4254 29.5506 54.6057C29.4926 54.786 29.3793 54.9435 29.2266 55.0556L25.8406 57.5144L27.1343 61.4949C27.1924 61.6752 27.192 61.8692 27.1331 62.0493C27.0743 62.2293 26.96 62.3862 26.8066 62.4973C26.6579 62.6089 26.4779 62.671 26.292 62.6746Z" fill="#F83718"/>
<path fill-rule="evenodd" clip-rule="evenodd" d="M42.6994 58.0967C42.5091 58.0974 42.3236 58.037 42.1702 57.9244L37.3158 54.4074L32.4615 57.9244C32.308 58.0366 32.123 58.0973 31.9329 58.0976C31.7428 58.0979 31.5574 58.0379 31.4036 57.9262C31.2498 57.8144 31.1353 57.6568 31.0768 57.4759C31.0183 57.295 31.0187 57.1001 31.078 56.9195L32.9299 51.2278L28.0756 47.7083C27.9215 47.5971 27.8067 47.44 27.7476 47.2594C27.6886 47.0788 27.6883 46.8842 27.7468 46.7035C27.8053 46.5228 27.9197 46.3652 28.0734 46.2536C28.2271 46.1419 28.4123 46.0819 28.6023 46.0821H34.5901L36.4396 40.388C36.4984 40.2076 36.6127 40.0504 36.7661 39.9389C36.9196 39.8273 37.1043 39.767 37.294 39.7666C37.4841 39.7665 37.6694 39.8265 37.8233 39.9382C37.9772 40.0498 38.0919 40.2072 38.1509 40.388L40.0003 46.0821H45.9883C46.1782 46.0819 46.3634 46.1419 46.5171 46.2536C46.6708 46.3652 46.7851 46.5228 46.8436 46.7035C46.9021 46.8842 46.9018 47.0788 46.8428 47.2594C46.7837 47.44 46.669 47.5971 46.5149 47.7083L41.6606 51.2278L43.51 56.9195C43.5693 57.0998 43.5698 57.2944 43.5113 57.475C43.4528 57.6556 43.3385 57.813 43.1848 57.9244C43.0443 58.0298 42.8749 58.0899 42.6994 58.0967Z" fill="#F83718"/>
<path fill-rule="evenodd" clip-rule="evenodd" d="M48.6876 62.6747C48.5457 62.6748 48.4058 62.6413 48.2793 62.5769C48.1529 62.5125 48.0434 62.419 47.9601 62.3041C47.8767 62.1892 47.8217 62.0562 47.7997 61.916C47.7777 61.7758 47.7891 61.6324 47.8332 61.4975L49.127 57.5194L45.7411 55.0606C45.5871 54.9494 45.4722 54.7922 45.4132 54.6117C45.3541 54.4311 45.3538 54.2365 45.4123 54.0557C45.4709 53.875 45.5853 53.7175 45.739 53.6058C45.8927 53.4942 46.0778 53.4342 46.2678 53.4344H50.4522L51.7435 49.4562C51.8028 49.2757 51.9175 49.1184 52.0713 49.0069C52.2252 48.8953 52.4102 48.8351 52.6003 48.8349C52.7901 48.8349 52.975 48.895 53.1285 49.0066C53.282 49.1183 53.3962 49.2756 53.4546 49.4562L54.7459 53.4344H58.9304C59.1204 53.4342 59.3055 53.4942 59.4592 53.6058C59.6129 53.7175 59.7273 53.875 59.7858 54.0557C59.8444 54.2365 59.8441 54.4311 59.785 54.6117C59.7259 54.7922 59.6111 54.9494 59.4571 55.0606L56.0736 57.5194L57.3648 61.4999C57.4233 61.6804 57.4231 61.8748 57.3643 62.0552C57.3055 62.2356 57.1911 62.3927 57.0375 62.504C56.8838 62.6153 56.6989 62.6751 56.5091 62.6748C56.3194 62.6745 56.1347 62.6141 55.9814 62.5023L52.6051 60.0388L49.2071 62.5023C49.0565 62.6132 48.8746 62.6735 48.6876 62.6747Z" fill="#F83718"/>
<path fill-rule="evenodd" clip-rule="evenodd" d="M64.811 81.9998H9.26738C6.97971 81.9972 4.78647 81.0873 3.16885 79.4697C1.55122 77.852 0.641242 75.6588 0.638672 73.3711V24.1163C0.641243 21.8288 1.55127 19.6359 3.16896 18.0186C4.78666 16.4014 6.97994 15.492 9.26738 15.4901H64.811C67.0985 15.492 69.2918 16.4014 70.9095 18.0186C72.5272 19.6359 73.4371 21.8288 73.4396 24.1163V73.3687C73.4364 75.6562 72.5264 77.849 70.9089 79.4665C69.2914 81.084 67.0985 81.9941 64.811 81.9973V81.9998ZM9.26738 17.2886C7.45672 17.2912 5.72085 18.0116 4.44051 19.2919C3.16017 20.5723 2.43982 22.308 2.43725 24.1187V73.3711C2.43918 75.182 3.15933 76.9182 4.4398 78.1986C5.72027 79.4791 7.45652 80.1993 9.26738 80.2012H64.811C66.6219 80.1993 68.358 79.4791 69.6385 78.1986C70.919 76.9182 71.6392 75.182 71.6412 73.3711V24.1163C71.6392 22.3054 70.919 20.5693 69.6385 19.2888C68.358 18.0083 66.6219 17.2881 64.811 17.2862L9.26738 17.2886Z" fill="#F83718"/>
<path fill-rule="evenodd" clip-rule="evenodd" d="M72.5395 29.8708H1.53946C1.41743 29.8772 1.29545 29.8587 1.18083 29.8163C1.06621 29.774 0.961424 29.7088 0.87281 29.6246C0.784196 29.5405 0.71363 29.4392 0.665409 29.327C0.617188 29.2147 0.592285 29.0937 0.592285 28.9716C0.592285 28.8494 0.617188 28.7285 0.665409 28.6162C0.71363 28.5039 0.784196 28.4027 0.87281 28.3185C0.961424 28.2344 1.06621 28.1692 1.18083 28.1268C1.29545 28.0845 1.41743 28.066 1.53946 28.0723H72.5395C72.7699 28.0843 72.9869 28.1843 73.1458 28.3516C73.3046 28.5189 73.3932 28.7408 73.3932 28.9716C73.3932 29.2023 73.3046 29.4242 73.1458 29.5916C72.9869 29.7589 72.7699 29.8589 72.5395 29.8708Z" fill="#F83718"/>
<path fill-rule="evenodd" clip-rule="evenodd" d="M27.8258 25.6018C27.2497 25.6018 26.6865 25.4309 26.2075 25.1109C25.7286 24.7908 25.3552 24.3359 25.1348 23.8037C24.9143 23.2715 24.8567 22.6859 24.9691 22.1209C25.0815 21.5559 25.3589 21.0369 25.7662 20.6296C26.1735 20.2222 26.6925 19.9448 27.2575 19.8325C27.8225 19.7201 28.4082 19.7777 28.9404 19.9982C29.4726 20.2186 29.9274 20.592 30.2475 21.0709C30.5675 21.5499 30.7384 22.1131 30.7384 22.6891C30.7384 23.4616 30.4315 24.2024 29.8853 24.7486C29.3391 25.2949 28.5982 25.6018 27.8258 25.6018Z" fill="#F83718"/>
<path fill-rule="evenodd" clip-rule="evenodd" d="M19.7387 25.6018C19.1627 25.6018 18.5996 25.4309 18.1206 25.1109C17.6417 24.7908 17.2683 24.3359 17.0478 23.8037C16.8274 23.2715 16.7698 22.6859 16.8822 22.1209C16.9945 21.5559 17.2718 21.0369 17.6792 20.6296C18.0865 20.2222 18.6056 19.9448 19.1706 19.8325C19.7356 19.7201 20.3211 19.7777 20.8534 19.9982C21.3856 20.2186 21.8405 20.592 22.1606 21.0709C22.4806 21.5499 22.6513 22.1131 22.6513 22.6891C22.6513 23.4616 22.3445 24.2024 21.7983 24.7486C21.252 25.2949 20.5112 25.6018 19.7387 25.6018Z" fill="#F83718"/>
<path fill-rule="evenodd" clip-rule="evenodd" d="M11.6489 25.6018C11.0728 25.6018 10.5098 25.4309 10.0308 25.1109C9.55181 24.7908 9.17844 24.3359 8.95799 23.8037C8.73754 23.2715 8.67993 22.6859 8.79231 22.1209C8.90469 21.5559 9.1821 21.0369 9.58944 20.6296C9.99678 20.2222 10.5157 19.9448 11.0807 19.8325C11.6457 19.7201 12.2313 19.7777 12.7635 19.9982C13.2957 20.2186 13.7507 20.592 14.0707 21.0709C14.3908 21.5499 14.5615 22.1131 14.5615 22.6891C14.5615 23.4616 14.2546 24.2024 13.7084 24.7486C13.1622 25.2949 12.4213 25.6018 11.6489 25.6018Z" fill="#F83718"/>
<path fill-rule="evenodd" clip-rule="evenodd" d="M65.35 74.8082H8.72868C8.61065 74.8085 8.49373 74.7855 8.38463 74.7405C8.27552 74.6954 8.17642 74.6293 8.09296 74.5459C8.00951 74.4624 7.94338 74.3632 7.89836 74.2541C7.85334 74.145 7.83025 74.0281 7.83057 73.9101V36.1625C7.83057 35.9243 7.92525 35.6959 8.09367 35.5275C8.26209 35.3591 8.4905 35.2645 8.72868 35.2645H65.35C65.5882 35.2645 65.8167 35.3591 65.9851 35.5275C66.1535 35.6959 66.2481 35.9243 66.2481 36.1625V73.9101C66.2481 74.1483 66.1535 74.3767 65.9851 74.5452C65.8167 74.7136 65.5882 74.8082 65.35 74.8082ZM9.62915 73.012H64.452V37.0606H9.62915V73.012Z" fill="#F83718"/>
<path fill-rule="evenodd" clip-rule="evenodd" d="M65.3501 68.5168H8.72878C8.49836 68.5049 8.28132 68.4049 8.12246 68.2376C7.9636 68.0702 7.875 67.8483 7.875 67.6176C7.875 67.3869 7.9636 67.1649 8.12246 66.9976C8.28132 66.8303 8.49836 66.7303 8.72878 66.7183H65.3501C65.5805 66.7303 65.7975 66.8303 65.9564 66.9976C66.1153 67.1649 66.2039 67.3869 66.2039 67.6176C66.2039 67.8483 66.1153 68.0702 65.9564 68.2376C65.7975 68.4049 65.5805 68.5049 65.3501 68.5168Z" fill="#F83718"/>
<path fill-rule="evenodd" clip-rule="evenodd" d="M68.0464 10.0993C67.1573 10.0998 66.2879 9.83656 65.5484 9.34292C64.8088 8.84928 64.2322 8.14737 63.8916 7.32604C63.551 6.5047 63.4618 5.6008 63.6349 4.72866C63.8081 3.85653 64.236 3.05535 64.8645 2.42645C65.4931 1.79755 66.294 1.3692 67.1661 1.19556C68.0381 1.02192 68.942 1.1108 69.7636 1.45096C70.5851 1.79111 71.2874 2.36722 71.7814 3.10649C72.2754 3.84577 72.5391 4.71497 72.5391 5.60413C72.5378 6.79551 72.0641 7.93774 71.2219 8.78039C70.3797 9.62305 69.2378 10.0974 68.0464 10.0993ZM68.0464 2.90994C67.513 2.90946 66.9913 3.06724 66.5476 3.36326C66.1038 3.65927 65.7578 4.08024 65.5533 4.57294C65.3489 5.06563 65.2951 5.60792 65.3989 6.13117C65.5027 6.65442 65.7593 7.13515 66.1363 7.51252C66.5133 7.88989 66.9938 8.14692 67.517 8.25116C68.0402 8.35541 68.5825 8.30219 69.0754 8.09816C69.5682 7.89413 69.9896 7.54845 70.286 7.10495C70.5824 6.66144 70.7406 6.14 70.7406 5.60656C70.74 4.892 70.456 4.20682 69.9509 3.70132C69.4459 3.19582 68.761 2.91122 68.0464 2.90994Z" fill="#F83718"/>
<path fill-rule="evenodd" clip-rule="evenodd" d="M15.9182 11.0094C14.8514 11.0094 13.8086 10.693 12.9216 10.1003C12.0347 9.50757 11.3433 8.66513 10.9352 7.67951C10.5271 6.69389 10.4204 5.60934 10.6287 4.5631C10.837 3.51685 11.3509 2.55586 12.1054 1.8017C12.8599 1.04755 13.8211 0.534135 14.8674 0.326311C15.9137 0.118487 16.9983 0.225582 17.9837 0.634153C18.9692 1.04272 19.8113 1.73442 20.4036 2.62165C20.9959 3.50887 21.3118 4.55181 21.3113 5.61859C21.3094 7.04814 20.7405 8.41852 19.7295 9.42914C18.7184 10.4398 17.3477 11.0081 15.9182 11.0094ZM15.9182 2.02878C15.2071 2.02878 14.512 2.23965 13.9208 2.63474C13.3296 3.02984 12.8689 3.5914 12.5969 4.24838C12.3249 4.90536 12.2538 5.62823 12.3927 6.32559C12.5316 7.02295 12.8742 7.6635 13.3772 8.16613C13.8802 8.66875 14.5209 9.0109 15.2183 9.14933C15.9158 9.28775 16.6386 9.21621 17.2954 8.94376C17.9522 8.67132 18.5135 8.21023 18.9082 7.61877C19.3029 7.02731 19.5133 6.33208 19.5128 5.62102C19.5144 5.14783 19.4226 4.67893 19.2427 4.24127C19.0628 3.80361 18.7982 3.4058 18.4643 3.07052C18.1304 2.73525 17.7336 2.46911 17.2967 2.28744C16.8598 2.10576 16.3913 2.01209 15.9182 2.01177V2.02878Z" fill="#F83718"/>
</svg>
