<svg width="83" height="82" viewBox="0 0 83 82" fill="none" xmlns="http://www.w3.org/2000/svg">
<path fill-rule="evenodd" clip-rule="evenodd" d="M69.0114 45.5603L63.3487 45.5409C63.1176 45.5409 62.896 45.4491 62.7326 45.2857C62.5692 45.1223 62.4773 44.9006 62.4773 44.6695C62.4773 44.4384 62.5692 44.2168 62.7326 44.0534C62.896 43.89 63.1176 43.7982 63.3487 43.7982L69.0089 43.8176C71.9655 43.7742 74.7864 42.5692 76.8619 40.463C78.9374 38.3568 80.1009 35.5185 80.1009 32.5615C80.1009 29.6045 78.9374 26.7663 76.8619 24.6601C74.7864 22.5539 71.9655 21.3489 69.0089 21.3055C68.8098 21.3055 68.5986 21.3054 68.3632 21.3249C68.1924 21.3346 68.0226 21.2938 67.8749 21.2074C67.7273 21.1211 67.6083 20.9931 67.5331 20.8394C66.6797 19.1132 65.4716 17.5866 63.9879 16.3592C62.5041 15.1318 60.7781 14.2313 58.9226 13.7165C57.067 13.2018 55.1236 13.0844 53.2196 13.372C51.3156 13.6596 49.4937 14.3457 47.8729 15.3856C47.7644 15.4556 47.6418 15.5006 47.5137 15.5173C47.3857 15.5341 47.2555 15.5222 47.1326 15.4825C47.0097 15.4427 46.8972 15.3762 46.8032 15.2877C46.7092 15.1991 46.6359 15.0908 46.5889 14.9705C44.9377 10.7803 41.8762 7.29763 37.9322 5.12292C33.9882 2.94821 29.4091 2.21779 24.9843 3.05759C20.5595 3.8974 16.5664 6.25481 13.6935 9.72333C10.8206 13.1918 9.24793 17.5541 9.24675 22.0579C9.24679 23.1264 9.33448 24.1931 9.5089 25.2472C9.54475 25.4665 9.49566 25.6913 9.37166 25.8757C9.24766 26.0601 9.05806 26.1904 8.84143 26.2399C6.72334 26.7201 4.85659 27.9642 3.59821 29.7343C2.33983 31.5044 1.77816 33.6763 2.0206 35.8346C2.26304 37.9928 3.29256 39.986 4.9123 41.4328C6.53205 42.8796 8.62835 43.6785 10.8002 43.6768L29.0987 43.7254C29.3298 43.7254 29.5514 43.8172 29.7149 43.9806C29.8783 44.144 29.9701 44.3656 29.9701 44.5967C29.9701 44.8278 29.8783 45.0495 29.7149 45.2129C29.5514 45.3763 29.3298 45.4681 29.0987 45.4681L10.8002 45.422C8.26918 45.4228 5.8218 44.5157 3.90279 42.8655C1.98378 41.2152 0.720433 38.9313 0.342311 36.4287C-0.0358113 33.9261 0.496381 31.3709 1.84218 29.2273C3.18797 27.0838 5.25809 25.4941 7.67637 24.7472C7.29424 21.7757 7.54977 18.7568 8.42591 15.8918C9.30206 13.0268 10.7787 10.3814 12.7575 8.13185C14.7362 5.88231 17.1717 4.08029 19.9015 2.84587C22.6314 1.61144 25.593 0.972948 28.589 0.972931C32.6508 0.972246 36.6263 2.14464 40.0378 4.3492C43.4493 6.55375 46.1515 9.69666 47.8196 13.4001C49.6034 12.4179 51.5639 11.7983 53.5882 11.5769C55.6125 11.3556 57.6605 11.5369 59.6144 12.1104C61.5684 12.6838 63.3896 13.6382 64.9732 14.9184C66.5568 16.1987 67.8714 17.7796 68.8414 19.57H69.0137C72.4615 19.57 75.7681 20.9397 78.2061 23.3776C80.6441 25.8156 82.0137 29.1222 82.0137 32.57C82.0137 36.0178 80.6441 39.3244 78.2061 41.7624C75.7681 44.2004 72.4615 45.57 69.0137 45.57L69.0114 45.5603Z" fill="#F83718"/>
<path fill-rule="evenodd" clip-rule="evenodd" d="M16.2688 22.019C16.0377 22.019 15.8161 21.9272 15.6527 21.7638C15.4893 21.6003 15.3975 21.3787 15.3975 21.1476C15.4013 17.4491 16.8721 13.9031 19.4871 11.2876C22.1022 8.67206 25.6479 7.20066 29.3465 7.19616C29.4649 7.18991 29.5834 7.20784 29.6947 7.24887C29.806 7.2899 29.9078 7.35316 29.9939 7.4348C30.0799 7.51644 30.1485 7.61474 30.1953 7.72373C30.2421 7.83272 30.2663 7.9501 30.2663 8.06873C30.2663 8.18735 30.2421 8.30474 30.1953 8.41372C30.1485 8.52271 30.0799 8.62102 29.9939 8.70266C29.9078 8.7843 29.806 8.84755 29.6947 8.88858C29.5834 8.92961 29.4649 8.94756 29.3465 8.94131C26.1104 8.94516 23.0078 10.2324 20.7195 12.5207C18.4313 14.809 17.144 17.9115 17.1402 21.1476C17.1405 21.2621 17.1182 21.3756 17.0745 21.4814C17.0308 21.5873 16.9666 21.6835 16.8857 21.7645C16.8047 21.8454 16.7085 21.9096 16.6026 21.9533C16.4968 21.997 16.3833 22.0193 16.2688 22.019Z" fill="#F83718"/>
<path fill-rule="evenodd" clip-rule="evenodd" d="M72.9406 10.6841C71.9062 10.6836 70.8952 10.3765 70.0354 9.80143C69.1755 9.22639 68.5054 8.40932 68.1099 7.45352C67.7143 6.49771 67.6111 5.4461 67.8132 4.43163C68.0153 3.41715 68.5137 2.48538 69.2453 1.75411C69.9769 1.02284 70.909 0.52492 71.9235 0.323293C72.9381 0.121666 73.9896 0.225381 74.9452 0.621343C75.9008 1.0173 76.7176 1.68773 77.2923 2.54785C77.8669 3.40796 78.1737 4.41914 78.1737 5.45355C78.1717 6.84061 77.6197 8.17028 76.6387 9.15086C75.6576 10.1314 74.3277 10.6828 72.9406 10.6841ZM72.9406 1.96567C72.2508 1.96567 71.5764 2.17024 71.0028 2.55349C70.4292 2.93674 69.9822 3.48147 69.7182 4.11879C69.4542 4.75611 69.3851 5.45741 69.5197 6.13399C69.6543 6.81057 69.9866 7.43204 70.4743 7.91983C70.9621 8.40762 71.5835 8.73981 72.2601 8.87439C72.9367 9.00897 73.638 8.9399 74.2754 8.67591C74.9127 8.41192 75.4574 7.96487 75.8407 7.3913C76.2239 6.81772 76.4285 6.14338 76.4285 5.45355C76.4279 4.52871 76.0602 3.64193 75.4062 2.98797C74.7523 2.334 73.8655 1.96632 72.9406 1.96567Z" fill="#F83718"/>
<path fill-rule="evenodd" clip-rule="evenodd" d="M11.0382 73.4632C9.65845 73.4636 8.30949 73.0549 7.16202 72.2887C6.01455 71.5225 5.12007 70.4332 4.59173 69.1586C4.06338 67.884 3.92493 66.4813 4.19381 65.128C4.4627 63.7747 5.12684 62.5315 6.10232 61.5557C7.07779 60.5799 8.32077 59.9153 9.674 59.6459C11.0272 59.3765 12.4299 59.5146 13.7047 60.0425C14.9795 60.5704 16.0691 61.4645 16.8357 62.6117C17.6023 63.7589 18.0115 65.1077 18.0115 66.4874C18.009 68.3363 17.2735 70.1088 15.9664 71.4163C14.6592 72.7239 12.8871 73.46 11.0382 73.4632ZM11.0382 61.2544C10.0031 61.2539 8.99111 61.5604 8.13022 62.1352C7.26934 62.7099 6.59826 63.527 6.20181 64.4831C5.80536 65.4393 5.70139 66.4916 5.90303 67.5068C6.10468 68.5221 6.60288 69.4548 7.33463 70.1869C8.06639 70.9189 8.99879 71.4176 10.014 71.6197C11.0291 71.8218 12.0815 71.7183 13.0378 71.3223C13.9942 70.9263 14.8116 70.2556 15.3867 69.395C15.9618 68.5344 16.2688 67.5225 16.2688 66.4874C16.2675 65.1004 15.7161 63.7705 14.7355 62.7894C13.755 61.8084 12.4253 61.2563 11.0382 61.2544Z" fill="#F83718"/>
<rect x="29.7138" y="26.0725" width="33.0097" height="54.6117" rx="4.97573" fill="white" stroke="#F83718" stroke-width="1.69903"/>
<path d="M29.5928 69.6404H62.6025" stroke="#F83718" stroke-width="1.69903"/>
<circle cx="46.3401" cy="74.9802" r="2.18447" fill="#F83718" stroke="#F83718" stroke-width="1.45631"/>
</svg>
